HIERARCHY
ROOT Hips
{
	OFFSET 0.00000 0.00000 0.00000
	CHANNELS 6 Xposition Yposition Zposition Yrotation Zrotation Xrotation 
	JOINT Lumbar
	{
		OFFSET 0 0 0
		CHANNELS 3 Zrotation Xrotation Yrotation
		JOINT Neck
		{
			OFFSET 0.00 0.2701 0.00
			CHANNELS 3 Zrotation Xrotation Yrotation
			End Site
			{
				OFFSET 0.00 0.1379 0.00
			}
		}
		JOINT RightShoulder
		{
			OFFSET 0.0119 0.2289 0.1181
			CHANNELS 3 Zrotation Xrotation Yrotation
			JOINT RightElbow
			{
				OFFSET 0.00 -0.1475 0.00
				CHANNELS 2 Zrotation Yrotation
				JOINT RightWrist
				{
					OFFSET 0.00 -0.1605 0.00
					CHANNELS 2 Zrotation Xrotation
					End Site
					{
						OFFSET 0.0040 -0.1068 0.0006
					}
				}
			}
		}
		JOINT LeftShoulder
		{
			OFFSET 0.0119 0.2289 -0.1181
			CHANNELS 3 Zrotation Xrotation Yrotation
			JOINT LeftElbow
			{
				OFFSET 0.00 -0.1475 0.00
				CHANNELS 2 Zrotation Yrotation
				JOINT LeftWrist
				{
					OFFSET 0.00 -0.1605 0.00
					CHANNELS 2 Zrotation Xrotation
					End Site
					{
						OFFSET 0.0040 -0.1068 -0.0006
					}
				}
			}
		}
	}
	JOINT RightHip
	{
		OFFSET 0.0316 -0.0424 0.0458
		CHANNELS 3 Zrotation Xrotation Yrotation
		JOINT RightKnee
		{
			OFFSET 0.00 -0.2438 0.00
			CHANNELS 1 Zrotation
			JOINT RightAnkle
			{
				OFFSET 0.00 -0.2449 0.00
				CHANNELS 3 Zrotation Xrotation Yrotation
				End Site
				{
					OFFSET 0.1237 -0.0542 0.0051
				}
			}
		}
	}
	JOINT LeftHip
	{
		OFFSET 0.0316 -0.0424 -0.0458
		CHANNELS 3 Zrotation Xrotation Yrotation
		JOINT LeftKnee
		{
			OFFSET 0.00 -0.2438 0.00
			CHANNELS 1 Zrotation
			JOINT LeftAnkle
			{
				OFFSET 0.00 -0.2449 0.00
				CHANNELS 3 Zrotation Xrotation Yrotation
				End Site
				{
					OFFSET 0.1237 -0.0542 -0.0051
				}
			}
		}
	}
}
MOTION
Frames: 25
Frame Time: 0.02
0.03264 0.0068 -0.11901 10.01555 -12.85395 -5.22976 38.21175 1.98687 -11.35492 -22.05373 0.08128 -0.83072 17.28553 -60.10488 16.02055 91.23794 81.30893 14.99818 -3.60833 18.8509 58.37427 -18.07724 93.73882 -73.547 18.39288 4.98554 37.17934 -6.88114 -9.38222 -20.47411 -12.25842 -4.59554 -3.37899 27.16684 1.84545 7.66345 -25.28011 -8.41273 5.06191 3.44
0.0326 0.00682 -0.11905 10.05255 -12.88966 -5.24126 38.2627 1.99758 -11.35193 -22.05395 0.11554 -0.83072 17.47823 -60.06759 16.22231 91.23127 81.3213 15.27848 -3.6616 18.96906 58.4559 -18.25504 93.72299 -73.50364 18.73596 5.58185 37.2143 -6.89383 -9.41215 -20.4774 -12.26126 -4.59173 -3.37947 27.22391 1.81114 7.48985 -25.29608 -8.4313 5.07409 3.44757
0.0326 0.00685 -0.11909 10.05157 -12.97735 -5.25099 38.35082 2.01783 -11.32016 -22.02697 0.15971 -0.83072 17.84729 -60.03195 16.53666 91.15503 81.31435 15.62488 -3.72998 19.23056 58.53475 -18.53338 93.69071 -73.11115 19.32637 6.36923 37.33071 -6.83676 -9.09158 -20.49951 -12.29651 -4.61005 -3.39513 27.34306 1.78178 7.32418 -25.3268 -8.45142 5.08774 3.45597
0.03259 0.00687 -0.11913 10.067 -13.03861 -5.26072 38.41899 2.03335 -11.30116 -22.01363 0.19848 -0.83072 18.13371 -59.98946 16.79549 91.11195 81.31681 15.93022 -3.78711 19.42155 58.61255 -18.75839 93.66802 -72.90887 19.76724 7.02424 37.40595 -6.8131 -8.94012 -20.51241 -12.31551 -4.61767 -3.40336 27.42951 1.75108 7.16043 -25.34972 -8.47042 5.10042 3.4638
0.03256 0.0069 -0.11918 10.08666 -13.1114 -5.27358 38.49957 2.05025 -11.28476 -21.99441 0.24075 -0.83072 18.44513 -59.97181 17.07953 91.06419 81.31475 16.28338 -3.86267 19.64525 58.70085 -19.02183 93.63642 -72.59524 20.3532 7.86569 37.49726 -6.78356 -8.75327 -20.52719 -12.34007 -4.62753 -3.41355 27.53411 1.71606 6.97237 -25.37692 -8.49121 5.11439 3.47248
0.03258 0.00693 -0.11921 10.08843 -13.17269 -5.27968 38.5633 2.06668 -11.25581 -21.98134 0.27819 -0.83072 18.74013 -59.90322 17.33412 91.00935 81.31865 16.55132 -3.90372 19.83157 58.76649 -19.22719 93.61938 -72.42088 20.70251 8.36978 37.57502 -6.74906 -8.55426 -20.54292 -12.36115 -4.63819 -3.42339 27.61598 1.69157 6.83759 -25.39884 -8.5086 5.12597 3.47955
0.03273 0.00695 -0.11917 10.04775 -13.18872 -5.26648 38.57149 2.07905 -11.19695 -21.98985 0.29968 -0.83072 18.9551 -59.69322 17.49332 90.94689 81.33821 16.57871 -3.84247 19.87269 58.76832 -19.24204 93.64763 -72.73319 20.30894 7.85374 37.59513 -6.71947 -8.41151 -20.55608 -12.36378 -4.6452 -3.42817 27.61931 1.69261 6.84303 -25.40252 -8.51641 5.131 3.48236
0.03293 0.00697 -0.1191 9.99071 -13.19145 -5.24676 38.56141 2.09073 -11.1267 -22.00591 0.31601 -0.83072 19.14414 -59.43234 17.61606 90.88024 81.36551 16.51666 -3.74651 19.8711 58.74768 -19.19515 93.69088 -73.19166 19.6753 6.99952 37.59893 -6.68691 -8.26743 -20.56978 -12.36201 -4.65234 -3.43214 27.5977 1.7045 6.90265 -25.40039 -8.52068 5.1335 3.48347
0.03311 0.00699 -0.11905 9.94251 -13.20091 -5.23077 38.55982 2.10306 -11.06293 -22.01997 0.33486 -0.83072 19.33723 -59.19482 17.74536 90.81859 81.39327 16.48745 -3.66863 19.89192 58.73844 -19.17907 93.72662 -73.56943 19.17189 6.32804 37.61073 -6.65441 -8.11994 -20.58371 -12.363 -4.65977 -3.43675 27.58815 1.71305 6.94103 -25.40104 -8.52643 5.13689 3.48512
0.03328 0.00701 -0.119 9.88695 -13.20967 -5.21149 38.55908 2.11433 -10.9926 -22.02714 0.35337 -0.83072 19.56846 -58.95536 17.9194 90.74178 81.40416 16.49061 -3.5817 19.90484 58.72402 -19.15456 93.76485 -73.99585 18.58797 5.54119 37.62334 -6.62461 -7.9756 -20.59621 -12.36211 -4.6666 -3.44081 27.57821 1.71521 6.9661 -25.40177 -8.53281 5.1414 3.48779
0.03348 0.00704 -0.11894 9.84346 -13.21561 -5.1975 38.55133 2.12745 -10.93371 -22.05069 0.37114 -0.83072 19.71292 -58.70908 17.99207 90.69609 81.45151 16.40787 -3.50499 19.92271 58.71519 -19.13218 93.80148 -74.35991 18.11127 4.91104 37.62872 -6.58982 -7.83102 -20.61167 -12.36341 -4.67431 -3.44554 27.5617 1.73298 7.03079 -25.40059 -8.53699 5.14296 3.48792
0.03373 0.00711 -0.11882 9.83629 -13.22085 -5.20016 38.53222 2.14639 -10.90828 -22.11865 0.38884 -0.83072 19.6123 -58.44564 17.77575 90.74061 81.60425 16.07771 -3.46657 19.95875 58.72651 -19.12513 93.83173 -74.51823 17.9915 4.80337 37.62327 -6.53848 -7.66885 -20.63439 -12.37396 -4.68539 -3.45315 27.53871 1.7931 7.19885 -25.39696 -8.53622 5.13698 3.48124
0.03401 0.0072 -0.11869 9.84215 -13.22285 -5.20829 38.50595 2.16708 -10.89504 -22.20274 0.40578 -0.83072 19.42644 -58.17901 17.4613 90.81631 81.79229 15.66937 -3.4393 20.00143 58.74439 -19.1228 93.85963 -74.60978 17.98675 4.86338 37.60991 -6.48313 -7.51094 -20.66018 -12.38634 -4.6971 -3.46127 27.50877 1.86817 7.40347 -25.39132 -8.53334 5.1281 3.4721
0.03428 0.00729 -0.11857 9.84295 -13.22342 -5.21366 38.48029 2.18656 -10.87696 -22.27894 0.42256 -0.83072 19.2865 -57.92098 17.20321 90.87593 81.95994 15.31816 -3.40575 20.04441 58.75982 -19.12159 93.88753 -74.73249 17.9262 4.84031 37.59616 -6.43238 -7.36482 -20.68496 -12.39626 -4.70777 -3.4685 27.47786 1.93513 7.5866 -25.38557 -8.53125 5.12053 3.46421
0.03453 0.00737 -0.11845 9.83969 -13.23536 -5.22 38.46467 2.20774 -10.8556 -22.35789 0.44134 -0.83072 19.11574 -57.6313 16.8949 90.94344 82.14619 14.87467 -3.37596 20.07266 58.77227 -19.10486 93.92036 -74.85772 17.87054 4.83221 37.598 -6.37015 -7.16263 -20.708 -12.41273 -4.72153 -3.47836 27.46294 2.00806 7.79235 -25.3838 -8.52967 5.11289 3.45565
0.03482 0.00745 -0.11832 9.84799 -13.22361 -5.22566 38.42731 2.22584 -10.84404 -22.43468 0.45578 -0.83072 18.9889 -57.40703 16.6675 91.00199 82.30197 14.60346 -3.34167 20.13288 58.79271 -19.12193 93.9423 -74.9586 17.83735 4.84011 37.56656 -6.33044 -7.07559 -20.73555 -12.41629 -4.72915 -3.48303 27.41412 2.07191 7.95878 -25.37352 -8.52664 5.10478 3.44797
0.03519 0.00752 -0.11815 9.887 -13.14216 -5.22853 38.32633 2.23473 -10.85738 -22.50293 0.45885 -0.83072 19.00696 -57.36817 16.69495 91.02801 82.36512 14.84898 -3.2905 20.28653 58.83427 -19.23477 93.93343 -75.02076 17.8183 4.82532 37.43772 -6.35825 -7.32971 -20.77324 -12.38158 -4.71811 -3.47202 27.26719 2.10753 8.00883 -25.33863 -8.51962 5.09561 3.44303
0.03559 0.00759 -0.11797 9.93691 -13.03805 -5.23047 38.20488 2.2405 -10.88011 -22.56815 0.45754 -0.83072 19.07171 -57.39477 16.80597 91.04397 82.39631 15.26674 -3.235 20.47087 58.88354 -19.38088 93.91384 -75.05822 17.82187 4.82611 37.27717 -6.40812 -7.69537 -20.81563 -12.33421 -4.70112 -3.45599 27.08776 2.13332 8.01738 -25.29559 -8.51133 5.08617 3.43913
0.03598 0.00766 -0.1178 9.98059 -12.94761 -5.23255 38.09631 2.2479 -10.89802 -22.63385 0.45794 -0.83072 19.11343 -57.38898 16.87406 91.06468 82.44202 15.59203 -3.18274 20.63718 58.92911 -19.50996 93.89991 -75.09774 17.83037 4.84 37.13601 -6.44499 -7.99382 -20.8569 -12.29408 -4.68788 -3.44307 26.9273 2.1633 8.04419 -25.25733 -8.50394 5.07714 3.43493
0.03636 0.00773 -0.11763 10.03007 -12.84253 -5.23596 37.97209 2.25451 -10.91853 -22.70397 0.45938 -0.83072 19.16001 -57.39407 16.95971 91.08577 82.48903 15.97534 -3.12523 20.82174 58.97617 -19.6481 93.88259 -75.17183 17.7822 4.77944 36.97332 -6.49405 -8.36109 -20.89405 -12.24784 -4.67034 -3.42671 26.74846 2.19518 8.0757 -25.21438 -8.49504 5.06675 3.4299
0.03676 0.0078 -0.11745 10.06992 -12.76296 -5.23636 37.87606 2.26197 -10.93589 -22.76387 0.45777 -0.83072 19.20844 -57.39227 17.02977 91.10322 82.52523 16.27862 -3.0778 20.97447 59.02133 -19.77411 93.86982 -75.17122 17.85136 4.8691 36.84832 -6.52327 -8.61275 -20.94078 -12.21117 -4.66023 -3.41627 26.60073 2.22035 8.08603 -25.17938 -8.4891 5.05923 3.4269
0.03719 0.00786 -0.11728 10.08018 -12.7562 -5.22822 37.85971 2.27276 -10.9408 -22.79681 0.44767 -0.83072 19.25271 -57.35392 17.03804 91.11337 82.53951 16.32936 -3.05636 21.04082 59.0642 -19.86843 93.87204 -74.94982 18.2798 5.42635 36.83251 -6.49023 -8.50702 -21.01351 -12.20511 -4.67289 -3.42402 26.5428 2.23122 8.05701 -25.1675 -8.49097 5.05905 3.42895
0.03762 0.00792 -0.11711 10.0804 -12.77634 -5.21711 37.87292 2.28446 -10.94248 -22.81942 0.43486 -0.83072 19.29721 -57.30676 17.02787 91.12002 82.54382 16.29243 -3.04563 21.07254 59.10408 -19.94773 93.87927 -74.65776 18.8184 6.12428 36.85608 -6.4369 -8.28321 -21.09555 -12.20891 -4.69308 -3.43779 26.51791 2.23531 8.00647 -25.164 -8.49597 5.06187 3.43306
0.03805 0.00798 -0.11694 10.08527 -12.78643 -5.20761 37.87492 2.29562 -10.94651 -22.84634 0.42402 -0.83072 19.34069 -57.2645 17.02555 91.12784 82.55246 16.28861 -3.03193 21.11395 59.14197 -20.02712 93.88431 -74.41247 19.27792 6.71808 36.86361 -6.3942 -8.12045 -21.17287 -12.20751 -4.70932 -3.44842 26.48084 2.24119 7.95947 -25.15727 -8.50002 5.06377 3.43645
0.03849 0.00805 -0.11676 10.08992 -12.78714 -5.197 37.86747 2.30723 -10.94697 -22.87472 0.40993 -0.83072 19.38978 -57.22034 17.02849 91.13695 82.56085 16.31759 -3.01033 21.18125 59.1938 -20.13529 93.88852 -74.10639 19.85655 7.47644 36.86289 -6.34616 -7.92997 -21.25252 -12.20873 -4.72762 -3.4606 26.43144 2.25205 7.93653 -25.14808 -8.50215 5.06387 3.439
